<?xml version="1.0" standalone="no"?><!DOCTYPE svg PUBLIC "-//W3C//DTD SVG 1.1//EN" "http://www.w3.org/Graphics/SVG/1.1/DTD/svg11.dtd"><svg t="1545971009762" class="icon" style="" viewBox="0 0 1024 1024" version="1.1" xmlns="http://www.w3.org/2000/svg" p-id="6687" xmlns:xlink="http://www.w3.org/1999/xlink" width="200" height="200"><defs><style type="text/css"></style></defs><path d="M298.20812844 991.99462438h-132.47992032c-69.86875782 0-126.71992406-56.84636625-126.71992406-126.71512407v-309.11981437c0-69.86875782 56.84156625-126.71992406 126.71992406-126.71992407h107.51993531L439.76004313 54.79998594A38.39997655 38.39997655 0 0 1 474.8480225 32c94.22394375 0 170.87989781 76.65595406 170.87989688 170.87989781v138.23991657h211.33427343c69.97915781-0.6672 127.25272406 55.52636625 127.91512313 125.505525a126.11512406 126.11512406 0 0 1-1.43039907 20.21758782l-60.95036343 397.49256186c-9.48959438 62.3519625-63.37436156 108.23513531-126.44152406 107.65913532H298.20812844z m498.11970093-76.79995407h0.4368a50.15996999 50.15996999 0 0 0 49.91517-42.43197469l60.95036344-397.49736186c4.10399719-27.26398406-14.67359156-52.69436813-41.9327747-56.79836532a49.43037001 49.43037001 0 0 0-7.9871953-0.552h-250.38705a38.39997655 38.39997655 0 0 1-38.39997656-38.39997659V202.87989781A94.25754375 94.25754375 0 0 0 498.46400844 111.80475219L336.608105 475.99013375v439.20453656h459.71972437zM165.72820812 506.234915c-27.55678313 0.0336-49.89117001 22.36798687-49.91996999 49.91997094v309.11981437c0.0288 27.55198313 22.36318687 49.88637001 49.91996999 49.91517h94.07994282v-408.95975531h-94.07994282z" p-id="6688"></path></svg>