<?xml version="1.0" encoding="utf-8"?>
<!-- Generator: Adobe Illustrator 16.0.0, SVG Export Plug-In . SVG Version: 6.00 Build 0)  -->
<!DOCTYPE svg PUBLIC "-//W3C//DTD SVG 1.1//EN" "http://www.w3.org/Graphics/SVG/1.1/DTD/svg11.dtd">
<svg version="1.1" id="图层_1" xmlns="http://www.w3.org/2000/svg" xmlns:xlink="http://www.w3.org/1999/xlink" x="0px" y="0px"
	 width="200px" height="200px" viewBox="0 0 200 200" enable-background="new 0 0 200 200" xml:space="preserve">
<path d="M173.832,69.844c0-12.036-9.792-21.83-21.83-21.83H138.67V43.51c0-22.142-18.014-40.156-40.156-40.156
	S58.358,21.368,58.358,43.51v4.504H45.03c-12.036,0-21.828,9.792-21.826,21.67l-4.24,107.13c0,12.035,9.792,21.828,21.83,21.828
	H156.24c12.035,0,21.828-9.793,21.824-21.986L173.832,69.844z M66.358,43.512c0-17.732,14.424-32.156,32.156-32.156
	S130.67,25.78,130.67,43.512v4.504H66.358V43.512z M156.24,190.645H40.794c-7.624,0-13.83-6.205-13.832-13.67l4.24-107.13
	c0-7.624,6.204-13.83,13.828-13.83H152c7.624,0,13.83,6.204,13.834,13.988l4.232,106.814
	C170.06,184.449,163.873,190.637,156.24,190.645z"/>
<path d="M98.514,137.098c-18.822,0-34.134-15.312-34.134-34.134h-8c0,23.231,18.902,42.134,42.134,42.134
	c23.234,0,42.134-18.902,42.134-42.134h-8C132.648,121.786,117.336,137.098,98.514,137.098z"/>
<path d="M60.029,106.631c-4.637,0-8.394-3.77-8.394-8.395c0-4.641,3.757-8.394,8.394-8.394c4.641,0,8.395,3.753,8.395,8.394
	C68.424,102.861,64.67,106.631,60.029,106.631L60.029,106.631z"/>
<path d="M136.973,106.631c-4.638,0-8.395-3.77-8.395-8.395c0-4.641,3.757-8.394,8.395-8.394c4.641,0,8.395,3.753,8.395,8.394
	C145.367,102.861,141.613,106.631,136.973,106.631L136.973,106.631z"/>
</svg>
